<?xml version="1.0" encoding="UTF-8"?>
<svg version="1.1" xmlns="http://www.w3.org/2000/svg" width="1050" height="600">
<path d="M0 0 C346.5 0 693 0 1050 0 C1050 198 1050 396 1050 600 C703.5 600 357 600 0 600 C0 402 0 204 0 0 Z " fill="#E5E5E5" transform="translate(0,0)"/>
<path d="M0 0 C135.63 0 271.26 0 411 0 C411 101.64 411 203.28 411 308 C275.37 308 139.74 308 0 308 C0 206.36 0 104.72 0 0 Z " fill="#E5E5E5" transform="translate(346,169)"/>
<path d="M0 0 C7.76283344 3.01007827 12.388631 11.16308792 16.75 17.875 C17.35521484 18.79635742 17.96042969 19.71771484 18.58398438 20.66699219 C39.46817897 52.6930686 57.20937713 86.75006563 74.69110107 120.71665955 C77.3464601 125.87545733 80.0222284 131.02105185 82.75146484 136.14111328 C87.79141449 145.60114914 92.62041264 155.16706816 97.42977905 164.74581909 C98.26608859 166.41095028 99.10366789 168.07544435 99.9425354 169.73928833 C101.12472434 172.08584191 102.30143494 174.43506005 103.4765625 176.78515625 C103.83853226 177.50195557 104.20050201 178.21875488 104.57344055 178.95727539 C107.0625 183.95836376 107.0625 183.95836376 107.0625 186.1875 C0.8025 186.1875 -105.4575 186.1875 -214.9375 186.1875 C-213.55654004 179.97318018 -212.06430283 174.14321216 -210.0234375 168.16015625 C-209.59362076 166.88521553 -209.59362076 166.88521553 -209.15512085 165.58451843 C-208.21422268 162.80403507 -207.26451348 160.02669607 -206.3125 157.25 C-205.98447388 156.29041382 -205.65644775 155.33082764 -205.31848145 154.34216309 C-195.21050299 124.83690452 -184.83780208 95.15634654 -170.9375 67.1875 C-170.56689453 66.43001465 -170.19628906 65.6725293 -169.81445312 64.89208984 C-161.89620711 48.81575944 -161.89620711 48.81575944 -155.9375 44.1875 C-153 43.3125 -153 43.3125 -149.9375 44.1875 C-124.60979232 57.97764019 -108.36233044 96.27760973 -94.9375 120.1875 C-91.73268843 116.33879935 -88.99099109 112.28412942 -86.3125 108.0625 C-46.64367638 46.2195021 -46.64367638 46.2195021 -22.9375 19.1875 C-21.95330078 18.03701172 -21.95330078 18.03701172 -20.94921875 16.86328125 C-6.83779264 0.43645485 -6.83779264 0.43645485 0 0 Z " fill="#ACACAC" transform="translate(604.9375,254.8125)"/>
<path d="M0 0 C135.63 0 271.26 0 411 0 C411 101.64 411 203.28 411 308 C275.37 308 139.74 308 0 308 C0 206.36 0 104.72 0 0 Z M25 20 C25 108.44 25 196.88 25 288 C144.13 288 263.26 288 386 288 C386.020625 243.965625 386.04125 199.93125 386.0625 154.5625 C386.071604 140.63232666 386.08070801 126.70215332 386.09008789 112.34985352 C386.09343127 99.91838849 386.09343127 99.91838849 386.09544373 87.48692322 C386.09637952 81.92779624 386.10006141 76.36867921 386.10557556 70.80955505 C386.11191767 64.40631946 386.11484142 58.00309347 386.11344495 51.5998547 C386.1128396 48.3206963 386.11438268 45.04156389 386.11921513 41.76240838 C386.12413894 38.26045665 386.12300848 34.75855986 386.12025452 31.25660706 C386.12316718 30.22093062 386.12607985 29.18525419 386.12908077 28.11819363 C386.1270899 27.18584204 386.12509903 26.25349045 386.12304783 25.29288578 C386.12342755 24.48218288 386.12380727 23.67147997 386.1241985 22.83621031 C386.2009877 20.98172897 386.2009877 20.98172897 385 20 C383.08695231 19.90232485 381.17023822 19.87628682 379.25469875 19.87695217 C377.9986853 19.87496112 376.74267184 19.87297007 375.44859737 19.87091869 C374.03664916 19.87377229 372.62470114 19.87671789 371.2127533 19.87974548 C369.72696192 19.87930991 368.24117062 19.87843527 366.75537974 19.87715632 C362.6530628 19.87490858 358.55077172 19.87893643 354.44845808 19.88393438 C350.03193813 19.88823472 345.61541976 19.88679275 341.19889832 19.8860321 C333.54050791 19.8855066 325.88212599 19.88865612 318.22373772 19.89426994 C307.15086087 19.90238142 296.07798815 19.9049998 285.00510866 19.90625793 C267.04205904 19.90844901 249.07901395 19.9151106 231.1159668 19.92456055 C213.66186546 19.93373323 196.20776536 19.94080331 178.75366211 19.94506836 C177.66762902 19.94533636 176.58159593 19.94560435 175.46265274 19.94588047 C166.96973119 19.94795978 158.47680962 19.94991674 149.98388803 19.95183504 C108.32258786 19.96127642 66.66129903 19.9813929 25 20 Z " fill="#ACACAC" transform="translate(346,169)"/>
<path d="M0 0 C135.63 0 271.26 0 411 0 C411 11.88 411 23.76 411 36 C402.42 36 393.84 36 385 36 C385 30.72 385 25.44 385 20 C266.2 20 147.4 20 25 20 C25 108.44 25 196.88 25 288 C30.28 288 35.56 288 41 288 C41 294.6 41 301.2 41 308 C27.47 308 13.94 308 0 308 C0 206.36 0 104.72 0 0 Z " fill="#ACACAC" transform="translate(292,122)"/>
<path d="M0 0 C7.99488179 4.8623046 13.03961634 11.5517723 15.81640625 20.4375 C17.69343229 28.37059118 16.21007023 36.19106819 12.18359375 43.265625 C6.42838813 51.48286681 -0.72756687 56.15234445 -10.5625 58.0625 C-18.46417691 58.9404641 -25.56275906 56.81841907 -32.125 52.296875 C-38.0978861 47.30637149 -41.10234728 42.44295817 -43.5625 35.0625 C-44.31603952 25.57866685 -44.63957922 16.94437305 -38.5625 9.0625 C-28.65852439 -1.7300566 -13.88404743 -6.23057408 0 0 Z " fill="#AEAEAE" transform="translate(505.5625,207.9375)"/>
</svg>
