<svg id="visual" viewBox="0 0 900 600" width="900" height="600" xmlns="http://www.w3.org/2000/svg" xmlns:xlink="http://www.w3.org/1999/xlink" version="1.1"><rect x="0" y="0" width="900" height="600" fill="#ffffff"></rect><defs><linearGradient id="grad1_0" x1="33.3%" y1="0%" x2="100%" y2="100%"><stop offset="20%" stop-color="#f69ad8" stop-opacity="1"></stop><stop offset="80%" stop-color="#f69ad8" stop-opacity="1"></stop></linearGradient></defs><defs><linearGradient id="grad1_1" x1="33.3%" y1="0%" x2="100%" y2="100%"><stop offset="20%" stop-color="#f69ad8" stop-opacity="1"></stop><stop offset="80%" stop-color="#fdcdec" stop-opacity="1"></stop></linearGradient></defs><defs><linearGradient id="grad1_2" x1="33.3%" y1="0%" x2="100%" y2="100%"><stop offset="20%" stop-color="#ffffff" stop-opacity="1"></stop><stop offset="80%" stop-color="#fdcdec" stop-opacity="1"></stop></linearGradient></defs><defs><linearGradient id="grad2_0" x1="0%" y1="0%" x2="66.7%" y2="100%"><stop offset="20%" stop-color="#f69ad8" stop-opacity="1"></stop><stop offset="80%" stop-color="#f69ad8" stop-opacity="1"></stop></linearGradient></defs><defs><linearGradient id="grad2_1" x1="0%" y1="0%" x2="66.7%" y2="100%"><stop offset="20%" stop-color="#fdcdec" stop-opacity="1"></stop><stop offset="80%" stop-color="#f69ad8" stop-opacity="1"></stop></linearGradient></defs><defs><linearGradient id="grad2_2" x1="0%" y1="0%" x2="66.7%" y2="100%"><stop offset="20%" stop-color="#fdcdec" stop-opacity="1"></stop><stop offset="80%" stop-color="#ffffff" stop-opacity="1"></stop></linearGradient></defs><g transform="translate(900, 0)"><path d="M0 243.4C-15.7 230.9 -31.3 218.3 -49.2 215.5C-67 212.6 -87 219.3 -104.1 216.2C-121.3 213.1 -135.5 200.1 -150.3 188.4C-165 176.7 -180.3 166.3 -190.3 151.7C-200.2 137.2 -204.8 118.5 -210.8 101.5C-216.9 84.5 -224.4 69.2 -230.1 52.5C-235.8 35.9 -239.6 17.9 -243.4 0L0 0Z" fill="#fee6f5"></path><path d="M0 162.2C-10.4 153.9 -20.9 145.6 -32.8 143.6C-44.7 141.7 -58 146.2 -69.4 144.2C-80.8 142.1 -90.3 133.4 -100.2 125.6C-110 117.8 -120.2 110.9 -126.9 101.2C-133.5 91.5 -136.5 79 -140.6 67.7C-144.6 56.3 -149.6 46.1 -153.4 35C-157.2 23.9 -159.7 12 -162.2 0L0 0Z" fill="#fab4e2"></path><path d="M0 81.1C-5.2 77 -10.4 72.8 -16.4 71.8C-22.3 70.9 -29 73.1 -34.7 72.1C-40.4 71 -45.2 66.7 -50.1 62.8C-55 58.9 -60.1 55.4 -63.4 50.6C-66.7 45.7 -68.3 39.5 -70.3 33.8C-72.3 28.2 -74.8 23.1 -76.7 17.5C-78.6 12 -79.9 6 -81.1 0L0 0Z" fill="#f69ad8"></path></g><g transform="translate(0, 600)"><path d="M0 -243.4C18.4 -240.8 36.9 -238.2 52.5 -230.1C68.2 -222 81 -208.5 96.8 -200.9C112.5 -193.3 131.2 -191.7 145.9 -182.9C160.6 -174.2 171.3 -158.2 178.3 -142.2C185.2 -126.1 188.3 -110 199.1 -95.9C210 -81.8 228.6 -69.8 237.3 -54.2C245.9 -38.5 244.7 -19.3 243.4 0L0 0Z" fill="#fee6f5"></path><path d="M0 -162.2C12.3 -160.5 24.6 -158.8 35 -153.4C45.4 -148 54 -139 64.5 -133.9C75 -128.9 87.5 -127.8 97.3 -122C107.1 -116.1 114.2 -105.5 118.8 -94.8C123.4 -84.1 125.5 -73.3 132.7 -63.9C140 -54.5 152.4 -46.5 158.2 -36.1C164 -25.7 163.1 -12.8 162.2 0L0 0Z" fill="#fab4e2"></path><path d="M0 -81.1C6.1 -80.3 12.3 -79.4 17.5 -76.7C22.7 -74 27 -69.5 32.3 -67C37.5 -64.4 43.7 -63.9 48.6 -61C53.5 -58.1 57.1 -52.7 59.4 -47.4C61.7 -42 62.8 -36.7 66.4 -32C70 -27.3 76.2 -23.3 79.1 -18.1C82 -12.8 81.6 -6.4 81.1 0L0 0Z" fill="#f69ad8"></path></g></svg>